<svg width="285" height="60" viewBox="0 0 285 60" fill="none" xmlns="http://www.w3.org/2000/svg">
<path d="M78.14 22.34C78.2867 22.4867 78.4933 22.6267 78.76 22.76C79.0267 22.88 79.38 22.94 79.82 22.94C80.5533 22.94 81.16 22.7533 81.64 22.38C82.1333 21.9933 82.38 21.46 82.38 20.78C82.38 20.2867 82.22 19.8733 81.9 19.54C81.5933 19.2067 81.2 18.9 80.72 18.62C80.24 18.34 79.7267 18.0667 79.18 17.8C78.6333 17.52 78.12 17.1933 77.64 16.82C77.16 16.4467 76.76 16.0067 76.44 15.5C76.1333 14.98 75.98 14.34 75.98 13.58C75.98 12.9267 76.1 12.36 76.34 11.88C76.58 11.4 76.9067 11.0067 77.32 10.7C77.7467 10.38 78.2467 10.1467 78.82 10C79.3933 9.84 80.0133 9.76 80.68 9.76C81.4933 9.76 82.2467 9.82 82.94 9.94C83.6467 10.0467 84.28 10.22 84.84 10.46C84.8267 10.7267 84.8 11.0333 84.76 11.38C84.7333 11.7267 84.6933 12.0733 84.64 12.42C84.5867 12.7533 84.5267 13.0733 84.46 13.38C84.4067 13.6733 84.3533 13.92 84.3 14.12H83.48L82.56 11.38C82.4 11.3 82.16 11.2267 81.84 11.16C81.5333 11.0933 81.2133 11.06 80.88 11.06C80.32 11.06 79.8467 11.2067 79.46 11.5C79.0733 11.7933 78.88 12.22 78.88 12.78C78.88 13.2867 79.04 13.72 79.36 14.08C79.68 14.4267 80.08 14.7467 80.56 15.04C81.04 15.3333 81.56 15.6267 82.12 15.92C82.6933 16.2 83.22 16.5267 83.7 16.9C84.18 17.2733 84.58 17.7133 84.9 18.22C85.22 18.7133 85.38 19.3267 85.38 20.06C85.38 21.3933 84.9267 22.4267 84.02 23.16C83.1267 23.88 81.8067 24.24 80.06 24.24C79.6333 24.24 79.2 24.2133 78.76 24.16C78.3333 24.1067 77.9267 24.0333 77.54 23.94C77.1533 23.8467 76.8067 23.7467 76.5 23.64C76.2067 23.5333 75.9867 23.42 75.84 23.3C75.8533 22.9933 75.8867 22.6667 75.94 22.32C75.9933 21.96 76.0467 21.6067 76.1 21.26C76.1667 20.9 76.2333 20.56 76.3 20.24C76.3667 19.92 76.4333 19.64 76.5 19.4H77.32L78.14 22.34ZM95.5523 21.1C95.5523 21.3933 95.5523 21.6467 95.5523 21.86C95.5657 22.0733 95.5857 22.3 95.6123 22.54L96.9923 22.74V23.44C96.8323 23.52 96.6123 23.6 96.3323 23.68C96.0657 23.76 95.779 23.84 95.4723 23.92C95.179 23.9867 94.8857 24.04 94.5923 24.08C94.299 24.1333 94.039 24.1733 93.8123 24.2H93.1323C92.999 23.8933 92.919 23.5867 92.8923 23.28C92.8657 22.9733 92.8457 22.6 92.8323 22.16H92.7323C92.6657 22.4267 92.5523 22.6867 92.3923 22.94C92.2323 23.18 92.0257 23.4 91.7723 23.6C91.5323 23.7867 91.2457 23.94 90.9123 24.06C90.579 24.18 90.2057 24.24 89.7923 24.24C89.3523 24.24 88.9457 24.1733 88.5723 24.04C88.199 23.9067 87.8723 23.72 87.5923 23.48C87.3123 23.24 87.0923 22.9533 86.9323 22.62C86.7723 22.2733 86.6923 21.8867 86.6923 21.46C86.6923 20.86 86.8057 20.3667 87.0323 19.98C87.259 19.5933 87.6123 19.28 88.0923 19.04C88.5857 18.7867 89.2123 18.6 89.9723 18.48C90.7457 18.36 91.679 18.2733 92.7723 18.22C92.879 17.0733 92.8323 16.2333 92.6323 15.7C92.4323 15.1667 91.999 14.9 91.3323 14.9C90.919 14.9 90.539 14.9667 90.1923 15.1L89.2523 17.5H88.3723C88.2657 17.34 88.159 17.16 88.0523 16.96C87.959 16.7467 87.8657 16.5267 87.7723 16.3C87.6923 16.06 87.619 15.82 87.5523 15.58C87.499 15.34 87.459 15.1067 87.4323 14.88C87.939 14.5333 88.5923 14.26 89.3923 14.06C90.1923 13.86 91.039 13.76 91.9323 13.76C92.6923 13.76 93.3123 13.8467 93.7923 14.02C94.2723 14.18 94.6457 14.4067 94.9123 14.7C95.1923 14.98 95.3857 15.3133 95.4923 15.7C95.599 16.0867 95.6523 16.5 95.6523 16.94C95.6523 17.74 95.6323 18.4667 95.5923 19.12C95.5657 19.76 95.5523 20.42 95.5523 21.1ZM91.0523 22.64C91.3323 22.64 91.5723 22.5867 91.7723 22.48C91.9723 22.3733 92.139 22.2467 92.2723 22.1C92.419 21.9533 92.5257 21.7933 92.5923 21.62C92.6723 21.4467 92.7323 21.2933 92.7723 21.16V19.16C92.1457 19.1733 91.6323 19.2133 91.2323 19.28C90.8323 19.3467 90.519 19.46 90.2923 19.62C90.0657 19.7667 89.9057 19.96 89.8123 20.2C89.7323 20.4267 89.6923 20.7067 89.6923 21.04C89.6923 21.5467 89.8123 21.94 90.0523 22.22C90.2923 22.5 90.6257 22.64 91.0523 22.64ZM103.705 8.96C104.252 8.96 104.738 9.01333 105.165 9.12C105.605 9.21333 105.938 9.30667 106.165 9.4C106.125 9.84 106.038 10.2933 105.905 10.76C105.772 11.2267 105.652 11.6133 105.545 11.92H104.865L103.985 10.02C103.638 10.02 103.345 10.06 103.105 10.14C102.878 10.2067 102.692 10.3467 102.545 10.56C102.412 10.7733 102.312 11.08 102.245 11.48C102.178 11.8667 102.145 12.3733 102.145 13V14H104.265V15.26H102.145V22.74C102.838 22.82 103.478 22.98 104.065 23.22V24H97.9452V23.22C98.3585 22.98 98.7985 22.82 99.2652 22.74V15.26H97.7452V14.48C98.2118 14.1867 98.7185 13.9667 99.2652 13.82V13.12C99.2652 12.2933 99.3785 11.6133 99.6052 11.08C99.8452 10.5333 100.165 10.1067 100.565 9.8C100.965 9.48 101.432 9.26 101.965 9.14C102.512 9.02 103.092 8.96 103.705 8.96ZM114.048 21.1C114.048 21.3933 114.048 21.6467 114.048 21.86C114.062 22.0733 114.082 22.3 114.108 22.54L115.488 22.74V23.44C115.328 23.52 115.108 23.6 114.828 23.68C114.562 23.76 114.275 23.84 113.968 23.92C113.675 23.9867 113.382 24.04 113.088 24.08C112.795 24.1333 112.535 24.1733 112.308 24.2H111.628C111.495 23.8933 111.415 23.5867 111.388 23.28C111.362 22.9733 111.342 22.6 111.328 22.16H111.228C111.162 22.4267 111.048 22.6867 110.888 22.94C110.728 23.18 110.522 23.4 110.268 23.6C110.028 23.7867 109.742 23.94 109.408 24.06C109.075 24.18 108.702 24.24 108.288 24.24C107.848 24.24 107.442 24.1733 107.068 24.04C106.695 23.9067 106.368 23.72 106.088 23.48C105.808 23.24 105.588 22.9533 105.428 22.62C105.268 22.2733 105.188 21.8867 105.188 21.46C105.188 20.86 105.302 20.3667 105.528 19.98C105.755 19.5933 106.108 19.28 106.588 19.04C107.082 18.7867 107.708 18.6 108.468 18.48C109.242 18.36 110.175 18.2733 111.268 18.22C111.375 17.0733 111.328 16.2333 111.128 15.7C110.928 15.1667 110.495 14.9 109.828 14.9C109.415 14.9 109.035 14.9667 108.688 15.1L107.748 17.5H106.868C106.762 17.34 106.655 17.16 106.548 16.96C106.455 16.7467 106.362 16.5267 106.268 16.3C106.188 16.06 106.115 15.82 106.048 15.58C105.995 15.34 105.955 15.1067 105.928 14.88C106.435 14.5333 107.088 14.26 107.888 14.06C108.688 13.86 109.535 13.76 110.428 13.76C111.188 13.76 111.808 13.8467 112.288 14.02C112.768 14.18 113.142 14.4067 113.408 14.7C113.688 14.98 113.882 15.3133 113.988 15.7C114.095 16.0867 114.148 16.5 114.148 16.94C114.148 17.74 114.128 18.4667 114.088 19.12C114.062 19.76 114.048 20.42 114.048 21.1ZM109.548 22.64C109.828 22.64 110.068 22.5867 110.268 22.48C110.468 22.3733 110.635 22.2467 110.768 22.1C110.915 21.9533 111.022 21.7933 111.088 21.62C111.168 21.4467 111.228 21.2933 111.268 21.16V19.16C110.642 19.1733 110.128 19.2133 109.728 19.28C109.328 19.3467 109.015 19.46 108.788 19.62C108.562 19.7667 108.402 19.96 108.308 20.2C108.228 20.4267 108.188 20.7067 108.188 21.04C108.188 21.5467 108.308 21.94 108.548 22.22C108.788 22.5 109.122 22.64 109.548 22.64ZM121.581 16.3C121.421 16.38 121.235 16.5133 121.021 16.7C120.808 16.8867 120.615 17.1933 120.441 17.62V22.74C120.708 22.7667 120.975 22.82 121.241 22.9C121.508 22.9667 121.775 23.0733 122.041 23.22V24H116.241V23.22C116.481 23.0867 116.708 22.9867 116.921 22.92C117.135 22.8533 117.348 22.7933 117.561 22.74V15.42L116.241 15.26V14.48C116.455 14.3867 116.715 14.3 117.021 14.22C117.341 14.14 117.668 14.0733 118.001 14.02C118.335 13.9533 118.655 13.9 118.961 13.86C119.281 13.82 119.548 13.7867 119.761 13.76H120.441V16.42H120.521C120.628 16.1267 120.781 15.82 120.981 15.5C121.195 15.18 121.441 14.8867 121.721 14.62C122.001 14.3533 122.308 14.14 122.641 13.98C122.975 13.82 123.321 13.7467 123.681 13.76C123.828 13.9467 123.955 14.2133 124.061 14.56C124.168 14.8933 124.255 15.2133 124.321 15.52V16.3H121.581ZM130.535 24H125.015V23.22C125.215 23.1133 125.421 23.0267 125.635 22.96C125.848 22.88 126.081 22.8067 126.335 22.74V15.42L125.015 15.26V14.48C125.215 14.4 125.461 14.32 125.755 14.24C126.061 14.16 126.381 14.0933 126.715 14.04C127.048 13.9733 127.375 13.92 127.695 13.88C128.015 13.8267 128.295 13.7867 128.535 13.76H129.215V22.74C129.481 22.8067 129.721 22.88 129.935 22.96C130.148 23.0267 130.348 23.1133 130.535 23.22V24ZM125.995 10.72C125.995 10.2533 126.155 9.88667 126.475 9.62C126.795 9.35333 127.208 9.22 127.715 9.22C128.221 9.22 128.635 9.35333 128.955 9.62C129.275 9.88667 129.435 10.2533 129.435 10.72C129.435 11.1733 129.275 11.5333 128.955 11.8C128.635 12.0667 128.221 12.2 127.715 12.2C127.208 12.2 126.795 12.0667 126.475 11.8C126.155 11.5333 125.995 11.1733 125.995 10.72ZM146.526 24H139.646V23.24C139.912 23.1333 140.212 23.0267 140.546 22.92C140.892 22.8 141.239 22.7133 141.586 22.66V11.3H139.266L137.986 14.72H137.166C137.112 14.4533 137.059 14.1133 137.006 13.7C136.952 13.2867 136.906 12.86 136.866 12.42C136.826 11.98 136.792 11.5467 136.766 11.12C136.739 10.68 136.726 10.3067 136.726 10H149.466C149.466 10.32 149.452 10.6933 149.426 11.12C149.399 11.5467 149.366 11.98 149.326 12.42C149.286 12.86 149.239 13.2867 149.186 13.7C149.132 14.1 149.079 14.44 149.026 14.72H148.186L146.906 11.3H144.586V22.66C144.932 22.7267 145.272 22.8067 145.606 22.9C145.952 22.9933 146.259 23.1067 146.526 23.24V24ZM149.292 19C149.292 18.1867 149.412 17.46 149.652 16.82C149.905 16.1667 150.259 15.6133 150.712 15.16C151.179 14.7067 151.739 14.36 152.392 14.12C153.045 13.88 153.785 13.76 154.612 13.76C155.545 13.76 156.345 13.8933 157.012 14.16C157.692 14.4133 158.245 14.7733 158.672 15.24C159.112 15.6933 159.432 16.2467 159.632 16.9C159.832 17.54 159.932 18.24 159.932 19C159.932 19.8133 159.812 20.5467 159.572 21.2C159.332 21.84 158.979 22.3867 158.512 22.84C158.059 23.2933 157.499 23.64 156.832 23.88C156.179 24.12 155.439 24.24 154.612 24.24C153.705 24.24 152.919 24.1133 152.252 23.86C151.585 23.5933 151.032 23.2333 150.592 22.78C150.152 22.3133 149.825 21.76 149.612 21.12C149.399 20.4667 149.292 19.76 149.292 19ZM152.392 19C152.392 19.6 152.425 20.1533 152.492 20.66C152.572 21.1533 152.705 21.5733 152.892 21.92C153.079 22.2667 153.332 22.54 153.652 22.74C153.972 22.9267 154.385 23.02 154.892 23.02C155.185 23.02 155.452 22.9533 155.692 22.82C155.932 22.6733 156.139 22.4467 156.312 22.14C156.485 21.82 156.612 21.4067 156.692 20.9C156.785 20.38 156.832 19.7467 156.832 19C156.832 18.3867 156.792 17.8333 156.712 17.34C156.645 16.8467 156.519 16.4267 156.332 16.08C156.159 15.7333 155.919 15.4667 155.612 15.28C155.305 15.08 154.919 14.98 154.452 14.98C154.105 14.98 153.805 15.0533 153.552 15.2C153.299 15.3333 153.085 15.56 152.912 15.88C152.739 16.1867 152.605 16.6 152.512 17.12C152.432 17.6267 152.392 18.2533 152.392 19ZM161.967 20.04C161.967 19.2 161.987 18.42 162.027 17.7C162.067 16.98 162.087 16.22 162.087 15.42L160.767 15.26V14.48C160.98 14.4 161.24 14.32 161.547 14.24C161.867 14.16 162.194 14.0933 162.527 14.04C162.86 13.9733 163.18 13.92 163.487 13.88C163.807 13.8267 164.074 13.7867 164.287 13.76H164.967C164.967 14.76 164.947 15.7467 164.907 16.72C164.867 17.68 164.847 18.6267 164.847 19.56C164.847 20.6533 164.954 21.44 165.167 21.92C165.394 22.4 165.807 22.64 166.407 22.64C166.82 22.64 167.2 22.4867 167.547 22.18C167.907 21.86 168.2 21.3533 168.427 20.66V15.42L167.127 15.26V14.48C167.327 14.4 167.574 14.32 167.867 14.24C168.174 14.16 168.487 14.0933 168.807 14.04C169.14 13.9733 169.467 13.92 169.787 13.88C170.107 13.8267 170.387 13.7867 170.627 13.76H171.307V22.58L172.627 22.74V23.44C172.44 23.52 172.207 23.6 171.927 23.68C171.647 23.76 171.354 23.84 171.047 23.92C170.74 23.9867 170.434 24.04 170.127 24.08C169.834 24.1333 169.567 24.1733 169.327 24.2H168.647L168.507 21.82H168.427C168.36 22.1 168.24 22.3867 168.067 22.68C167.894 22.96 167.667 23.22 167.387 23.46C167.12 23.6867 166.8 23.8733 166.427 24.02C166.054 24.1667 165.64 24.24 165.187 24.24C164.68 24.24 164.227 24.1733 163.827 24.04C163.44 23.92 163.107 23.7 162.827 23.38C162.547 23.06 162.334 22.6333 162.187 22.1C162.04 21.5533 161.967 20.8667 161.967 20.04ZM178.788 16.3C178.628 16.38 178.442 16.5133 178.228 16.7C178.015 16.8867 177.822 17.1933 177.648 17.62V22.74C177.915 22.7667 178.182 22.82 178.448 22.9C178.715 22.9667 178.982 23.0733 179.248 23.22V24H173.448V23.22C173.688 23.0867 173.915 22.9867 174.128 22.92C174.342 22.8533 174.555 22.7933 174.768 22.74V15.42L173.448 15.26V14.48C173.662 14.3867 173.922 14.3 174.228 14.22C174.548 14.14 174.875 14.0733 175.208 14.02C175.542 13.9533 175.862 13.9 176.168 13.86C176.488 13.82 176.755 13.7867 176.968 13.76H177.648V16.42H177.728C177.835 16.1267 177.988 15.82 178.188 15.5C178.402 15.18 178.648 14.8867 178.928 14.62C179.208 14.3533 179.515 14.14 179.848 13.98C180.182 13.82 180.528 13.7467 180.888 13.76C181.035 13.9467 181.162 14.2133 181.268 14.56C181.375 14.8933 181.462 15.2133 181.528 15.52V16.3H178.788ZM187.742 24H182.222V23.22C182.422 23.1133 182.628 23.0267 182.842 22.96C183.055 22.88 183.288 22.8067 183.542 22.74V15.42L182.222 15.26V14.48C182.422 14.4 182.668 14.32 182.962 14.24C183.268 14.16 183.588 14.0933 183.922 14.04C184.255 13.9733 184.582 13.92 184.902 13.88C185.222 13.8267 185.502 13.7867 185.742 13.76H186.422V22.74C186.688 22.8067 186.928 22.88 187.142 22.96C187.355 23.0267 187.555 23.1133 187.742 23.22V24ZM183.202 10.72C183.202 10.2533 183.362 9.88667 183.682 9.62C184.002 9.35333 184.415 9.22 184.922 9.22C185.428 9.22 185.842 9.35333 186.162 9.62C186.482 9.88667 186.642 10.2533 186.642 10.72C186.642 11.1733 186.482 11.5333 186.162 11.8C185.842 12.0667 185.428 12.2 184.922 12.2C184.415 12.2 184.002 12.0667 183.682 11.8C183.362 11.5333 183.202 11.1733 183.202 10.72ZM194.002 21.82C194.002 21.4733 193.876 21.1733 193.622 20.92C193.382 20.6667 193.076 20.4333 192.702 20.22C192.342 20.0067 191.942 19.7933 191.502 19.58C191.076 19.3667 190.676 19.12 190.302 18.84C189.942 18.5467 189.636 18.2067 189.382 17.82C189.142 17.4333 189.022 16.96 189.022 16.4C189.022 16 189.116 15.64 189.302 15.32C189.489 14.9867 189.742 14.7067 190.062 14.48C190.382 14.2533 190.762 14.08 191.202 13.96C191.656 13.8267 192.142 13.76 192.662 13.76C193.382 13.76 194.049 13.82 194.662 13.94C195.289 14.0467 195.836 14.2 196.302 14.4C196.249 14.8267 196.142 15.2867 195.982 15.78C195.822 16.26 195.669 16.7 195.522 17.1H194.842L194.002 15.06C193.842 14.9933 193.676 14.9533 193.502 14.94C193.329 14.9133 193.136 14.9 192.922 14.9C192.522 14.9 192.216 15.02 192.002 15.26C191.802 15.4867 191.702 15.7467 191.702 16.04C191.702 16.3733 191.822 16.6667 192.062 16.92C192.316 17.16 192.622 17.3867 192.982 17.6C193.356 17.8133 193.756 18.0267 194.182 18.24C194.622 18.4533 195.022 18.7 195.382 18.98C195.756 19.2467 196.062 19.5667 196.302 19.94C196.556 20.3133 196.682 20.76 196.682 21.28C196.682 22.2 196.309 22.9267 195.562 23.46C194.816 23.98 193.816 24.24 192.562 24.24C191.922 24.24 191.262 24.1733 190.582 24.04C189.902 23.9067 189.316 23.72 188.822 23.48C188.849 23 188.962 22.5133 189.162 22.02C189.362 21.5267 189.576 21.0867 189.802 20.7H190.482L191.462 22.88C191.609 22.9867 191.769 23.0533 191.942 23.08C192.129 23.0933 192.302 23.1 192.462 23.1C192.849 23.1 193.202 22.9867 193.522 22.76C193.842 22.5333 194.002 22.22 194.002 21.82ZM197.445 14.48C197.952 14.16 198.485 13.9333 199.045 13.8V12.18C199.125 12.1 199.258 12.0267 199.445 11.96C199.645 11.88 199.852 11.8133 200.065 11.76C200.292 11.6933 200.512 11.6333 200.725 11.58C200.938 11.5267 201.112 11.4867 201.245 11.46H201.925V14H204.565V15.26H201.925V20.44C201.925 21.2667 202.025 21.84 202.225 22.16C202.438 22.48 202.785 22.64 203.265 22.64C203.505 22.64 203.772 22.6267 204.065 22.6C204.372 22.56 204.652 22.4933 204.905 22.4L205.045 23.06C204.925 23.18 204.745 23.3067 204.505 23.44C204.278 23.5733 204.012 23.7 203.705 23.82C203.412 23.94 203.085 24.04 202.725 24.12C202.378 24.2 202.012 24.24 201.625 24.24C200.758 24.24 200.112 24.0133 199.685 23.56C199.258 23.1067 199.045 22.3733 199.045 21.36V15.26H197.445V14.48ZM211.413 24H205.893V23.22C206.093 23.1133 206.3 23.0267 206.513 22.96C206.727 22.88 206.96 22.8067 207.213 22.74V15.42L205.893 15.26V14.48C206.093 14.4 206.34 14.32 206.633 14.24C206.94 14.16 207.26 14.0933 207.593 14.04C207.927 13.9733 208.253 13.92 208.573 13.88C208.893 13.8267 209.173 13.7867 209.413 13.76H210.093V22.74C210.36 22.8067 210.6 22.88 210.813 22.96C211.027 23.0267 211.227 23.1133 211.413 23.22V24ZM206.873 10.72C206.873 10.2533 207.033 9.88667 207.353 9.62C207.673 9.35333 208.087 9.22 208.593 9.22C209.1 9.22 209.513 9.35333 209.833 9.62C210.153 9.88667 210.313 10.2533 210.313 10.72C210.313 11.1733 210.153 11.5333 209.833 11.8C209.513 12.0667 209.1 12.2 208.593 12.2C208.087 12.2 207.673 12.0667 207.353 11.8C207.033 11.5333 206.873 11.1733 206.873 10.72ZM221.034 22.38C220.941 22.6467 220.787 22.8933 220.574 23.12C220.361 23.3333 220.101 23.5267 219.794 23.7C219.501 23.8733 219.161 24.0067 218.774 24.1C218.401 24.1933 218.007 24.24 217.594 24.24C216.714 24.24 215.954 24.12 215.314 23.88C214.687 23.6267 214.167 23.2733 213.754 22.82C213.341 22.3533 213.034 21.8 212.834 21.16C212.634 20.5067 212.534 19.7867 212.534 19C212.534 17.3067 212.994 16.0133 213.914 15.12C214.847 14.2133 216.167 13.76 217.874 13.76C218.527 13.76 219.127 13.8333 219.674 13.98C220.221 14.1133 220.674 14.2733 221.034 14.46C221.007 14.6867 220.967 14.94 220.914 15.22C220.874 15.4867 220.821 15.76 220.754 16.04C220.701 16.3067 220.634 16.5733 220.554 16.84C220.474 17.0933 220.394 17.3067 220.314 17.48H219.334L218.494 15.1C218.401 15.0333 218.301 14.9867 218.194 14.96C218.087 14.92 217.927 14.9 217.714 14.9C217.367 14.9 217.067 14.9667 216.814 15.1C216.561 15.22 216.341 15.4333 216.154 15.74C215.981 16.0467 215.847 16.4533 215.754 16.96C215.674 17.4667 215.634 18.0933 215.634 18.84C215.634 19.3867 215.694 19.8933 215.814 20.36C215.934 20.8133 216.114 21.2133 216.354 21.56C216.607 21.8933 216.921 22.16 217.294 22.36C217.667 22.5467 218.107 22.64 218.614 22.64C219.081 22.64 219.487 22.5733 219.834 22.44C220.181 22.3067 220.474 22.1467 220.714 21.96L221.034 22.38Z" fill="white"/>
<path d="M81.2139 35.2031V48H79.5439V35.2031H81.2139ZM85.3271 35.2031V36.5918H75.4395V35.2031H85.3271ZM87.9375 39.9844V48H86.3115V38.4902H87.8936L87.9375 39.9844ZM90.9082 38.4375L90.8994 39.9492C90.7646 39.9199 90.6357 39.9023 90.5127 39.8965C90.3955 39.8848 90.2607 39.8789 90.1084 39.8789C89.7334 39.8789 89.4023 39.9375 89.1152 40.0547C88.8281 40.1719 88.585 40.3359 88.3857 40.5469C88.1865 40.7578 88.0283 41.0098 87.9111 41.3027C87.7998 41.5898 87.7266 41.9062 87.6914 42.252L87.2344 42.5156C87.2344 41.9414 87.29 41.4023 87.4014 40.8984C87.5186 40.3945 87.6973 39.9492 87.9375 39.5625C88.1777 39.1699 88.4824 38.8652 88.8516 38.6484C89.2266 38.4258 89.6719 38.3145 90.1875 38.3145C90.3047 38.3145 90.4395 38.3291 90.5918 38.3584C90.7441 38.3818 90.8496 38.4082 90.9082 38.4375ZM97.667 46.374V41.4785C97.667 41.1035 97.5908 40.7783 97.4385 40.5029C97.292 40.2217 97.0693 40.0049 96.7705 39.8525C96.4717 39.7002 96.1025 39.624 95.6631 39.624C95.2529 39.624 94.8926 39.6943 94.582 39.835C94.2773 39.9756 94.0371 40.1602 93.8613 40.3887C93.6914 40.6172 93.6064 40.8633 93.6064 41.127H91.9805C91.9805 40.7871 92.0684 40.4502 92.2441 40.1162C92.4199 39.7822 92.6719 39.4805 93 39.2109C93.334 38.9355 93.7324 38.7188 94.1953 38.5605C94.6641 38.3965 95.1855 38.3145 95.7598 38.3145C96.4512 38.3145 97.0605 38.4316 97.5879 38.666C98.1211 38.9004 98.5371 39.2549 98.8359 39.7295C99.1406 40.1982 99.293 40.7871 99.293 41.4961V45.9258C99.293 46.2422 99.3193 46.5791 99.3721 46.9365C99.4307 47.2939 99.5156 47.6016 99.627 47.8594V48H97.9307C97.8486 47.8125 97.7842 47.5635 97.7373 47.2529C97.6904 46.9365 97.667 46.6436 97.667 46.374ZM97.9482 42.2344L97.9658 43.377H96.3223C95.8594 43.377 95.4463 43.415 95.083 43.4912C94.7197 43.5615 94.415 43.6699 94.1689 43.8164C93.9229 43.9629 93.7354 44.1475 93.6064 44.3701C93.4775 44.5869 93.4131 44.8418 93.4131 45.1348C93.4131 45.4336 93.4805 45.7061 93.6152 45.9521C93.75 46.1982 93.9521 46.3945 94.2217 46.541C94.4971 46.6816 94.834 46.752 95.2324 46.752C95.7305 46.752 96.1699 46.6465 96.5508 46.4355C96.9316 46.2246 97.2334 45.9668 97.4561 45.6621C97.6846 45.3574 97.8076 45.0615 97.8252 44.7744L98.5195 45.5566C98.4785 45.8027 98.3672 46.0752 98.1855 46.374C98.0039 46.6729 97.7607 46.96 97.4561 47.2354C97.1572 47.5049 96.7998 47.7305 96.3838 47.9121C95.9736 48.0879 95.5107 48.1758 94.9951 48.1758C94.3506 48.1758 93.7852 48.0498 93.2988 47.7979C92.8184 47.5459 92.4434 47.209 92.1738 46.7871C91.9102 46.3594 91.7783 45.8818 91.7783 45.3545C91.7783 44.8447 91.8779 44.3965 92.0771 44.0098C92.2764 43.6172 92.5635 43.292 92.9385 43.0342C93.3135 42.7705 93.7646 42.5713 94.292 42.4365C94.8193 42.3018 95.4082 42.2344 96.0586 42.2344H97.9482ZM104.602 46.5322L107.203 38.4902H108.864L105.445 48H104.355L104.602 46.5322ZM102.431 38.4902L105.111 46.5762L105.296 48H104.206L100.761 38.4902H102.431ZM114.252 48.1758C113.59 48.1758 112.989 48.0645 112.45 47.8418C111.917 47.6133 111.457 47.2939 111.07 46.8838C110.689 46.4736 110.396 45.9873 110.191 45.4248C109.986 44.8623 109.884 44.2471 109.884 43.5791V43.21C109.884 42.4365 109.998 41.748 110.227 41.1445C110.455 40.5352 110.766 40.0195 111.158 39.5977C111.551 39.1758 111.996 38.8564 112.494 38.6396C112.992 38.4229 113.508 38.3145 114.041 38.3145C114.721 38.3145 115.307 38.4316 115.799 38.666C116.297 38.9004 116.704 39.2285 117.021 39.6504C117.337 40.0664 117.571 40.5586 117.724 41.127C117.876 41.6895 117.952 42.3047 117.952 42.9727V43.7021H110.851V42.375H116.326V42.252C116.303 41.8301 116.215 41.4199 116.062 41.0215C115.916 40.623 115.682 40.2949 115.359 40.0371C115.037 39.7793 114.598 39.6504 114.041 39.6504C113.672 39.6504 113.332 39.7295 113.021 39.8877C112.711 40.04 112.444 40.2686 112.222 40.5732C111.999 40.8779 111.826 41.25 111.703 41.6895C111.58 42.1289 111.519 42.6357 111.519 43.21V43.5791C111.519 44.0303 111.58 44.4551 111.703 44.8535C111.832 45.2461 112.017 45.5918 112.257 45.8906C112.503 46.1895 112.799 46.4238 113.145 46.5938C113.496 46.7637 113.895 46.8486 114.34 46.8486C114.914 46.8486 115.4 46.7314 115.799 46.4971C116.197 46.2627 116.546 45.9492 116.845 45.5566L117.829 46.3389C117.624 46.6494 117.363 46.9453 117.047 47.2266C116.73 47.5078 116.341 47.7363 115.878 47.9121C115.421 48.0879 114.879 48.1758 114.252 48.1758ZM121.617 34.5V48H119.982V34.5H121.617ZM134.3 46.374V41.4785C134.3 41.1035 134.224 40.7783 134.071 40.5029C133.925 40.2217 133.702 40.0049 133.403 39.8525C133.104 39.7002 132.735 39.624 132.296 39.624C131.886 39.624 131.525 39.6943 131.215 39.835C130.91 39.9756 130.67 40.1602 130.494 40.3887C130.324 40.6172 130.239 40.8633 130.239 41.127H128.613C128.613 40.7871 128.701 40.4502 128.877 40.1162C129.053 39.7822 129.305 39.4805 129.633 39.2109C129.967 38.9355 130.365 38.7188 130.828 38.5605C131.297 38.3965 131.818 38.3145 132.393 38.3145C133.084 38.3145 133.693 38.4316 134.221 38.666C134.754 38.9004 135.17 39.2549 135.469 39.7295C135.773 40.1982 135.926 40.7871 135.926 41.4961V45.9258C135.926 46.2422 135.952 46.5791 136.005 46.9365C136.063 47.2939 136.148 47.6016 136.26 47.8594V48H134.563C134.481 47.8125 134.417 47.5635 134.37 47.2529C134.323 46.9365 134.3 46.6436 134.3 46.374ZM134.581 42.2344L134.599 43.377H132.955C132.492 43.377 132.079 43.415 131.716 43.4912C131.353 43.5615 131.048 43.6699 130.802 43.8164C130.556 43.9629 130.368 44.1475 130.239 44.3701C130.11 44.5869 130.046 44.8418 130.046 45.1348C130.046 45.4336 130.113 45.7061 130.248 45.9521C130.383 46.1982 130.585 46.3945 130.854 46.541C131.13 46.6816 131.467 46.752 131.865 46.752C132.363 46.752 132.803 46.6465 133.184 46.4355C133.564 46.2246 133.866 45.9668 134.089 45.6621C134.317 45.3574 134.44 45.0615 134.458 44.7744L135.152 45.5566C135.111 45.8027 135 46.0752 134.818 46.374C134.637 46.6729 134.394 46.96 134.089 47.2354C133.79 47.5049 133.433 47.7305 133.017 47.9121C132.606 48.0879 132.144 48.1758 131.628 48.1758C130.983 48.1758 130.418 48.0498 129.932 47.7979C129.451 47.5459 129.076 47.209 128.807 46.7871C128.543 46.3594 128.411 45.8818 128.411 45.3545C128.411 44.8447 128.511 44.3965 128.71 44.0098C128.909 43.6172 129.196 43.292 129.571 43.0342C129.946 42.7705 130.397 42.5713 130.925 42.4365C131.452 42.3018 132.041 42.2344 132.691 42.2344H134.581ZM144.645 38.4902H146.121V47.7979C146.121 48.6357 145.951 49.3506 145.611 49.9424C145.271 50.5342 144.797 50.9824 144.188 51.2871C143.584 51.5977 142.887 51.7529 142.096 51.7529C141.768 51.7529 141.381 51.7002 140.936 51.5947C140.496 51.4951 140.062 51.3223 139.635 51.0762C139.213 50.8359 138.858 50.5107 138.571 50.1006L139.424 49.1338C139.822 49.6143 140.238 49.9482 140.672 50.1357C141.111 50.3232 141.545 50.417 141.973 50.417C142.488 50.417 142.934 50.3203 143.309 50.127C143.684 49.9336 143.974 49.6465 144.179 49.2656C144.39 48.8906 144.495 48.4277 144.495 47.877V40.582L144.645 38.4902ZM138.097 43.3506V43.166C138.097 42.4395 138.182 41.7803 138.352 41.1885C138.527 40.5908 138.776 40.0781 139.099 39.6504C139.427 39.2227 139.822 38.8945 140.285 38.666C140.748 38.4316 141.27 38.3145 141.85 38.3145C142.447 38.3145 142.969 38.4199 143.414 38.6309C143.865 38.8359 144.246 39.1377 144.557 39.5361C144.873 39.9287 145.122 40.4033 145.304 40.96C145.485 41.5166 145.611 42.1465 145.682 42.8496V43.6582C145.617 44.3555 145.491 44.9824 145.304 45.5391C145.122 46.0957 144.873 46.5703 144.557 46.9629C144.246 47.3555 143.865 47.6572 143.414 47.8682C142.963 48.0732 142.436 48.1758 141.832 48.1758C141.264 48.1758 140.748 48.0557 140.285 47.8154C139.828 47.5752 139.436 47.2383 139.107 46.8047C138.779 46.3711 138.527 45.8613 138.352 45.2754C138.182 44.6836 138.097 44.042 138.097 43.3506ZM139.723 43.166V43.3506C139.723 43.8252 139.77 44.2705 139.863 44.6865C139.963 45.1025 140.112 45.4688 140.312 45.7852C140.517 46.1016 140.777 46.3506 141.094 46.5322C141.41 46.708 141.788 46.7959 142.228 46.7959C142.767 46.7959 143.212 46.6816 143.563 46.4531C143.915 46.2246 144.193 45.9229 144.398 45.5479C144.609 45.1729 144.773 44.7656 144.891 44.3262V42.208C144.826 41.8857 144.727 41.5752 144.592 41.2764C144.463 40.9717 144.293 40.7021 144.082 40.4678C143.877 40.2275 143.622 40.0371 143.317 39.8965C143.013 39.7559 142.655 39.6855 142.245 39.6855C141.8 39.6855 141.416 39.7793 141.094 39.9668C140.777 40.1484 140.517 40.4004 140.312 40.7227C140.112 41.0391 139.963 41.4082 139.863 41.8301C139.77 42.2461 139.723 42.6914 139.723 43.166ZM152.537 48.1758C151.875 48.1758 151.274 48.0645 150.735 47.8418C150.202 47.6133 149.742 47.2939 149.355 46.8838C148.975 46.4736 148.682 45.9873 148.477 45.4248C148.271 44.8623 148.169 44.2471 148.169 43.5791V43.21C148.169 42.4365 148.283 41.748 148.512 41.1445C148.74 40.5352 149.051 40.0195 149.443 39.5977C149.836 39.1758 150.281 38.8564 150.779 38.6396C151.277 38.4229 151.793 38.3145 152.326 38.3145C153.006 38.3145 153.592 38.4316 154.084 38.666C154.582 38.9004 154.989 39.2285 155.306 39.6504C155.622 40.0664 155.856 40.5586 156.009 41.127C156.161 41.6895 156.237 42.3047 156.237 42.9727V43.7021H149.136V42.375H154.611V42.252C154.588 41.8301 154.5 41.4199 154.348 41.0215C154.201 40.623 153.967 40.2949 153.645 40.0371C153.322 39.7793 152.883 39.6504 152.326 39.6504C151.957 39.6504 151.617 39.7295 151.307 39.8877C150.996 40.04 150.729 40.2686 150.507 40.5732C150.284 40.8779 150.111 41.25 149.988 41.6895C149.865 42.1289 149.804 42.6357 149.804 43.21V43.5791C149.804 44.0303 149.865 44.4551 149.988 44.8535C150.117 45.2461 150.302 45.5918 150.542 45.8906C150.788 46.1895 151.084 46.4238 151.43 46.5938C151.781 46.7637 152.18 46.8486 152.625 46.8486C153.199 46.8486 153.686 46.7314 154.084 46.4971C154.482 46.2627 154.831 45.9492 155.13 45.5566L156.114 46.3389C155.909 46.6494 155.648 46.9453 155.332 47.2266C155.016 47.5078 154.626 47.7363 154.163 47.9121C153.706 48.0879 153.164 48.1758 152.537 48.1758ZM159.762 40.5205V48H158.136V38.4902H159.674L159.762 40.5205ZM159.375 42.8848L158.698 42.8584C158.704 42.208 158.801 41.6074 158.988 41.0566C159.176 40.5 159.439 40.0166 159.779 39.6064C160.119 39.1963 160.523 38.8799 160.992 38.6572C161.467 38.4287 161.991 38.3145 162.565 38.3145C163.034 38.3145 163.456 38.3789 163.831 38.5078C164.206 38.6309 164.525 38.8301 164.789 39.1055C165.059 39.3809 165.264 39.7383 165.404 40.1777C165.545 40.6113 165.615 41.1416 165.615 41.7686V48H163.98V41.751C163.98 41.2529 163.907 40.8545 163.761 40.5557C163.614 40.251 163.4 40.0312 163.119 39.8965C162.838 39.7559 162.492 39.6855 162.082 39.6855C161.678 39.6855 161.309 39.7705 160.975 39.9404C160.646 40.1104 160.362 40.3447 160.122 40.6436C159.888 40.9424 159.703 41.2852 159.568 41.6719C159.439 42.0527 159.375 42.457 159.375 42.8848ZM171.891 46.8398C172.277 46.8398 172.635 46.7607 172.963 46.6025C173.291 46.4443 173.561 46.2275 173.771 45.9521C173.982 45.6709 174.103 45.3516 174.132 44.9941H175.679C175.649 45.5566 175.459 46.0811 175.107 46.5674C174.762 47.0479 174.308 47.4375 173.745 47.7363C173.183 48.0293 172.564 48.1758 171.891 48.1758C171.176 48.1758 170.552 48.0498 170.019 47.7979C169.491 47.5459 169.052 47.2002 168.7 46.7607C168.354 46.3213 168.094 45.8174 167.918 45.249C167.748 44.6748 167.663 44.0684 167.663 43.4297V43.0605C167.663 42.4219 167.748 41.8184 167.918 41.25C168.094 40.6758 168.354 40.1689 168.7 39.7295C169.052 39.29 169.491 38.9443 170.019 38.6924C170.552 38.4404 171.176 38.3145 171.891 38.3145C172.635 38.3145 173.285 38.4668 173.842 38.7715C174.398 39.0703 174.835 39.4805 175.151 40.002C175.474 40.5176 175.649 41.1035 175.679 41.7598H174.132C174.103 41.3672 173.991 41.0127 173.798 40.6963C173.61 40.3799 173.353 40.1279 173.024 39.9404C172.702 39.7471 172.324 39.6504 171.891 39.6504C171.393 39.6504 170.974 39.75 170.634 39.9492C170.3 40.1426 170.033 40.4062 169.834 40.7402C169.641 41.0684 169.5 41.4346 169.412 41.8389C169.33 42.2373 169.289 42.6445 169.289 43.0605V43.4297C169.289 43.8457 169.33 44.2559 169.412 44.6602C169.494 45.0645 169.632 45.4307 169.825 45.7588C170.024 46.0869 170.291 46.3506 170.625 46.5498C170.965 46.7432 171.387 46.8398 171.891 46.8398ZM180.179 47.0156L182.824 38.4902H184.564L180.75 49.4678C180.662 49.7021 180.545 49.9541 180.398 50.2236C180.258 50.499 180.076 50.7598 179.854 51.0059C179.631 51.252 179.361 51.4512 179.045 51.6035C178.734 51.7617 178.362 51.8408 177.929 51.8408C177.8 51.8408 177.636 51.8232 177.437 51.7881C177.237 51.7529 177.097 51.7236 177.015 51.7002L177.006 50.3818C177.053 50.3877 177.126 50.3936 177.226 50.3994C177.331 50.4111 177.404 50.417 177.445 50.417C177.814 50.417 178.128 50.3672 178.386 50.2676C178.644 50.1738 178.86 50.0127 179.036 49.7842C179.218 49.5615 179.373 49.2539 179.502 48.8613L180.179 47.0156ZM178.236 38.4902L180.706 45.873L181.128 47.5869L179.959 48.1846L176.461 38.4902H178.236Z" fill="white"/>
<circle cx="30" cy="30" r="29.5" stroke="white"/>
<path d="M63.2078 10.5356L61.0769 7.42788L59.2867 5.8765L59.2701 4.60788L58.4212 4L57.3559 6.26637L55.7459 5.22236L55.1886 5.78887L55.8148 7.0446L46.5703 15.8584L32.0115 22.9515L27.644 23.9181L26.6165 24.4447L23.9038 27.9511L22.7772 31.7466L22.5127 33.8448L23.0969 35.0974L23.1586 34.6399L24.1991 30.8548L23.2062 38.4985L22.0798 41.9438L20 52.4316H21.8884L21.3175 51.4826L22.3093 46.4718L26.0545 38.9928L25.3657 41.8043L28.2919 52.4316H30.2819L29.4497 51.3724L28.0537 47.2084L27.4639 40.9549L29.6087 36.0147L30.8934 34.7613L36.845 34.77L37.8978 35.8196L35.9732 50.1469L36.05 52.4316H37.9439L37.2455 51.3825L37.506 45.9273L40.4114 35.9413L40.7681 35.9438L47.1446 52.4316H49.0591L48.0865 51.4382L46.353 46.7498L43.6351 34.9205L44.3556 28.8518L44.0028 27.1587L44.3345 25.9676L56.7052 11.9222L58.5897 11.5542L63.3487 13.2859L63.6867 11.9442L63.2078 10.5356Z" fill="white"/>
</svg>
